<?xml version="1.0" encoding="utf-8"?>
<!-- Generator: Adobe Illustrator 16.0.0, SVG Export Plug-In . SVG Version: 6.00 Build 0)  -->
<!DOCTYPE svg PUBLIC "-//W3C//DTD SVG 1.1//EN" "http://www.w3.org/Graphics/SVG/1.1/DTD/svg11.dtd" [
	<!ENTITY ns_extend "http://ns.adobe.com/Extensibility/1.0/">
	<!ENTITY ns_ai "http://ns.adobe.com/AdobeIllustrator/10.0/">
	<!ENTITY ns_graphs "http://ns.adobe.com/Graphs/1.0/">
	<!ENTITY ns_vars "http://ns.adobe.com/Variables/1.0/">
	<!ENTITY ns_imrep "http://ns.adobe.com/ImageReplacement/1.0/">
	<!ENTITY ns_sfw "http://ns.adobe.com/SaveForWeb/1.0/">
	<!ENTITY ns_custom "http://ns.adobe.com/GenericCustomNamespace/1.0/">
	<!ENTITY ns_adobe_xpath "http://ns.adobe.com/XPath/1.0/">
]>
<svg version="1.1" id="Layer_1" xmlns:x="&ns_extend;" xmlns:i="&ns_ai;" xmlns:graph="&ns_graphs;" focusable="false"
	 xmlns="http://www.w3.org/2000/svg" xmlns:xlink="http://www.w3.org/1999/xlink" x="0px" y="0px" viewBox="0 0 82.524 68.029" enable-background="new 0 0 82.524 68.029" xml:space="preserve" preserveAspectRatio="xMidYMid meet">
<metadata>
	<sfw  xmlns="&ns_sfw;">
		<slices></slices>
		<sliceSourceBounds  width="76.91" height="62.503" y="177.82" x="266.513" bottomLeftOrigin="true"></sliceSourceBounds>
	</sfw>
</metadata>
<path d="M79.937,10.59c-2.828,1.255-5.869,2.104-9.063,2.485c3.258-1.953,5.76-5.045,6.938-8.73
	c-3.047,1.809-6.424,3.122-10.018,3.829c-2.879-3.066-6.98-4.983-11.518-4.983c-8.717,0-15.781,7.065-15.781,15.779
	c0,1.237,0.141,2.441,0.409,3.596C27.791,21.907,16.164,15.626,8.382,6.079c-1.358,2.331-2.136,5.041-2.136,7.933
	c0,5.475,2.786,10.304,7.02,13.134c-2.587-0.082-5.02-0.792-7.147-1.974c-0.001,0.066-0.001,0.132-0.001,0.198
	c0,7.646,5.438,14.022,12.657,15.473c-1.324,0.36-2.718,0.554-4.157,0.554c-1.017,0-2.005-0.1-2.969-0.283
	c2.008,6.268,7.835,10.83,14.74,10.957c-5.4,4.233-12.204,6.755-19.597,6.755c-1.274,0-2.53-0.074-3.764-0.22
	c6.983,4.477,15.277,7.089,24.188,7.089c29.025,0,44.896-24.044,44.896-44.895c0-0.684-0.018-1.364-0.045-2.042
	C75.146,16.533,77.824,13.754,79.937,10.59z"/>
</svg>
