<?xml version="1.0" encoding="utf-8"?>
<!-- Generator: Adobe Illustrator 16.0.0, SVG Export Plug-In . SVG Version: 6.00 Build 0)  -->
<!DOCTYPE svg PUBLIC "-//W3C//DTD SVG 1.1//EN" "http://www.w3.org/Graphics/SVG/1.1/DTD/svg11.dtd">
<svg version="1.1" id="Layer_1" xmlns="http://www.w3.org/2000/svg" xmlns:xlink="http://www.w3.org/1999/xlink" x="0px" y="0px"
	   preserveAspectRatio="xMidYMid meet" viewBox="-18.464 0 104.422 68.029" enable-background="new -18.464 0 104.422 68.029"
	 xml:space="preserve" focusable="false">
<g>
	<path d="M42.4,46.789L20.347,49.93l10.457-10.956c-3.652-4.398-5.038-7.643-5.038-13.299c0-1.801,0.278-3.545,0.758-5.228
		c-3.74-1.416-7.902-2.23-12.309-2.23c-16.001,0-28.97,10.42-28.97,23.284c0,12.866,12.968,23.287,28.97,23.287
		c4.361,0,8.492-0.805,12.207-2.19l18.123,2.433l-8.071-8.641C39.316,53.653,41.362,50.374,42.4,46.789z"/>
	<g>
		<path d="M56.326,2.669c-14.554,0-26.353,9.482-26.353,21.188c0,5.146,2.288,9.875,6.099,13.546l-7.343,7.863l16.49-2.214
			c3.381,1.26,7.139,1.992,11.106,1.992c14.56,0,26.359-9.481,26.359-21.188C82.685,12.151,70.885,2.669,56.326,2.669z"/>
	</g>
</g>
</svg>
